<?xml version="1.0" encoding="utf-8"?>
<!-- Generator: Adobe Illustrator 16.0.0, SVG Export Plug-In . SVG Version: 6.00 Build 0)  -->
<!DOCTYPE svg PUBLIC "-//W3C//DTD SVG 1.1//EN" "http://www.w3.org/Graphics/SVG/1.1/DTD/svg11.dtd">
<svg version="1.1" xmlns="http://www.w3.org/2000/svg" xmlns:xlink="http://www.w3.org/1999/xlink" x="0px" y="0px" width="617px"
	 height="438px" viewBox="0 0 617 438" enable-background="new 0 0 617 438" xml:space="preserve">
<g id="Center_Guides">
</g>
<g id="Original" display="none" opacity="0.5">
	<path display="inline" fill="#80BD01" d="M308.32,386.199c-4.48,0-8.96-1.279-12.8-3.199l-40.32-23.68
		c-5.76-3.201-3.2-4.48-1.28-5.121c8.32-2.559,9.601-3.199,18.56-8.318c0.641-0.641,1.92,0,3.201,0l31.359,18.559
		c1.28,0.641,2.561,0.641,3.84,0l120.96-69.76c1.28-0.641,1.92-1.92,1.92-3.199V151.32c0-1.28-0.64-2.56-1.92-3.2L310.88,78.36
		c-1.279-0.64-2.56-0.64-3.84,0l-121.6,69.12c-1.28,0.64-1.92,1.92-1.92,3.2v139.519c0,1.281,0.64,2.561,1.92,3.201L218.72,312.6
		c17.92,8.961,28.801-1.279,28.801-12.16V162.84c0-1.92,1.279-3.2,3.84-3.2h15.359c1.92,0,3.2,1.28,3.2,3.2v138.24
		c0,24.32-12.8,37.76-35.84,37.76c-7.04,0-12.8,0-28.16-7.68l-32-18.561c-7.68-4.48-12.8-12.799-12.8-22.4V151.32
		c0-8.96,5.12-17.28,12.8-22.399L295.521,59.16c7.68-4.479,17.92-4.479,25.6,0l120.96,69.761c7.681,4.479,12.8,12.8,12.8,22.399
		v139.52c0,8.961-5.119,17.279-12.8,22.4L321.12,383C316.64,384.92,312.8,386.199,308.32,386.199z"/>
	<path display="inline" fill="#80BD01" d="M345.44,290.199c-53.12,0-64-24.318-64-44.799c0-1.92,1.279-3.201,3.199-3.201H300
		c1.92,0,3.2,1.281,3.2,3.201c2.56,16,9.6,23.68,41.6,23.68c25.6,0,36.48-5.76,36.48-19.199c0-7.682-3.2-13.441-42.881-17.281
		c-33.279-3.199-53.76-10.879-53.76-37.119c0-24.321,20.48-39.041,55.041-39.041c39.039,0,58.239,13.44,60.159,42.24
		c0,1.281,0,1.92-0.64,2.561c-0.641,0.641-1.28,1.279-2.561,1.279h-16c-1.92,0-3.199-1.279-3.199-2.559
		c-3.84-16.641-12.801-22.401-37.76-22.401c-28.16,0-31.36,9.6-31.36,17.28c0,8.961,3.84,11.52,41.6,16.641
		c37.12,5.119,55.04,12.16,55.04,37.76C405.601,274.84,383.84,290.199,345.44,290.199z"/>
	
		<rect x="346" y="332" transform="matrix(0.8644 -0.5028 0.5028 0.8644 -127.8339 222.9815)" fill="#BD0101" width="7" height="32.999"/>
</g>
<g id="Seth">
	<g>
		<rect x="194.438" y="170.486" fill="none" width="290.907" height="128.076"/>
		
			<path fill="#80BD01" stroke="#80BD01" stroke-width="7" stroke-linecap="round" stroke-linejoin="round" stroke-miterlimit="10" d="
			M290.474,201.541h-13.897c-0.208-3.261-1.062-6.198-2.562-8.812c-1.502-2.613-3.468-4.839-5.9-6.677
			c-2.434-1.837-5.279-3.248-8.54-4.231c-3.261-0.982-6.781-1.475-10.559-1.475c-5.176,0-9.848,0.906-14.013,2.717
			c-4.167,1.813-7.713,4.464-10.637,7.958c-2.924,3.493-5.176,7.802-6.754,12.926c-1.58,5.124-2.368,11.024-2.368,17.701
			c0,6.626,0.789,12.513,2.368,17.663c1.578,5.15,3.816,9.484,6.715,13.004c2.898,3.521,6.417,6.199,10.559,8.035
			c4.14,1.838,8.746,2.757,13.819,2.757c3.985,0,7.621-0.492,10.908-1.476c3.287-0.982,6.134-2.445,8.54-4.387
			c2.407-1.94,4.334-4.309,5.784-7.104c1.448-2.795,2.329-6.029,2.64-9.704h13.897c-0.466,5.434-1.825,10.274-4.076,14.518
			c-2.252,4.244-5.202,7.842-8.851,10.791c-3.649,2.951-7.907,5.19-12.771,6.716c-4.866,1.526-10.145,2.29-15.838,2.29
			c-7.298,0-13.897-1.242-19.797-3.727s-10.921-6.042-15.062-10.675c-4.142-4.631-7.325-10.221-9.549-16.77
			c-2.226-6.547-3.338-13.858-3.338-21.932c0-8.074,1.125-15.384,3.377-21.932c2.251-6.547,5.446-12.124,9.588-16.731
			c4.14-4.606,9.161-8.164,15.062-10.675c5.9-2.51,12.473-3.765,19.72-3.765c5.435,0,10.559,0.79,15.372,2.368
			c4.813,1.58,9.083,3.805,12.81,6.677c3.727,2.873,6.767,6.341,9.123,10.403C288.598,192.057,290.008,196.572,290.474,201.541z"/>
		
			<path fill="#80BD01" stroke="#80BD01" stroke-width="7" stroke-linecap="round" stroke-linejoin="round" stroke-miterlimit="10" d="
			M338.56,272.967h-13.12v-102.48h13.12V272.967z"/>
		
			<path fill="#80BD01" stroke="#80BD01" stroke-width="7" stroke-linecap="round" stroke-linejoin="round" stroke-miterlimit="10" d="
			M388.976,184.771h-13.12v-14.285h13.12V184.771z M388.976,272.967h-13.12v-74.143h13.12V272.967z"/>
	</g>
	<g display="none">
		<rect x="363" y="172.424" display="inline" fill="none" width="107.907" height="128.076"/>
		
			<path display="inline" fill="#80BD01" stroke="#80BD01" stroke-width="7" stroke-linecap="round" stroke-linejoin="round" stroke-miterlimit="10" d="
			M386.623,187.158H373.09v-14.734h13.533V187.158z M386.623,278.127H373.09v-76.475h13.533V278.127z"/>
	</g>
	<path fill="#80BD01" d="M173.92,313.24c-7.681-5.121-12.8-13.439-12.8-22.4V151.32c0-9.6,5.119-17.92,12.8-22.399L294.88,59.16
		c7.68-4.479,17.92-4.479,25.6,0L442.08,128.92c7.68,5.119,12.8,13.439,12.8,22.399v138.879c0,9.602-5.12,17.92-12.8,22.4
		L366,357.75c-9.719,5.313-27.504,15.122-37.25,20.75c-4.438,2.563-8.514,3.563-8.514-1V116.2c0-1.92,1.279-3.2,3.199-3.2h15.359
		c2.561,0,3.84,1.28,3.84,3.2V341c0,4.641,1.803,3.688,5.303,1.906c2.971-1.512,82.622-49.506,82.622-49.506
		c1.28-0.641,1.92-1.92,1.92-3.201V150.68c0-1.28-0.64-2.561-1.92-3.2l-121.6-69.12c-1.28-0.64-2.561-0.64-3.84,0l-120.96,69.76
		c-1.28,0.641-1.92,1.92-1.92,3.2V291.48c0,1.279,0.64,2.559,1.92,3.199l120.199,68.289c0.725,0.382,1.463,1.289,1.225,2.163
		c-0.375,1.375-9.239,15.523-9.334,15.618c-1.219,1.219-3.581,0.952-5.313-0.047L173.92,313.24z"/>
	<g>
		
			<path fill="#80BD01" stroke="#80BD01" stroke-width="7" stroke-linecap="round" stroke-linejoin="round" stroke-miterlimit="10" d="
			M134.754,226.115H91.512v-10.891h43.242V226.115z"/>
	</g>
	<g>
		
			<path fill="#80BD01" stroke="#80BD01" stroke-width="7" stroke-linecap="round" stroke-linejoin="round" stroke-miterlimit="10" d="
			M60.754,226.115H17.512v-10.891h43.242V226.115z"/>
	</g>
	<g>
		
			<path fill="#80BD01" stroke="#80BD01" stroke-width="7" stroke-linecap="round" stroke-linejoin="round" stroke-miterlimit="10" d="
			M593.754,226.615h-43.242v-10.891h43.242V226.615z"/>
	</g>
	<g>
		
			<path fill="#80BD01" stroke="#80BD01" stroke-width="7" stroke-linecap="round" stroke-linejoin="round" stroke-miterlimit="10" d="
			M519.754,226.615h-43.242v-10.891h43.242V226.615z"/>
	</g>
	<g>
		
			<path fill="#80BD01" stroke="#80BD01" stroke-width="7" stroke-linecap="round" stroke-linejoin="round" stroke-miterlimit="10" d="
			M328.754,22.615h-43.242V11.725h43.242V22.615z"/>
	</g>
	<g>
		
			<path fill="#80BD01" stroke="#80BD01" stroke-width="7" stroke-linecap="round" stroke-linejoin="round" stroke-miterlimit="10" d="
			M328.754,421.115h-43.242v-10.891h43.242V421.115z"/>
	</g>
</g>
<g id="Beth" display="none">
	<path display="inline" fill="#80BD01" stroke="#80BD01" stroke-miterlimit="10" d="M297,59l-1.344,0.755
		c0,0-95.156,50.745-123.156,69.245c-6.163,4.072-11.776,19.617-12,27c-1,33-0.5,103,0.5,132.5c0.22,6.481,6.716,19.24,12,23
		C199,330,259,364,290,380c3.965,2.046,17.056,0.938,17.5-3.5c1-10-1-45.5-1-45.5L296,321l-75.5-39.5l-6.5-12l-2.5-101l8-11.5
		l81-45.5c0,0,5.563-5.139,6-7.5c2.5-13.5,4.5-32.5,1-44C306.732,57.478,297,59,297,59z"/>
	<path display="inline" fill="#80BD01" stroke="#80BD01" stroke-miterlimit="10" d="M316.5,61c-0.5,70.5-2.5,242,0,309
		c0.148,3.979,10.986,7.298,14.75,6c21.75-7.5,79.125-45.5,79.125-45.5l4.063-13c0,0-7.753-15.427-10.469-20.5
		c-2.164-4.043-8.969-16-8.969-16l-24.5,11c0,0-0.438-14.249-0.5-19c-0.575-43.746-0.002-175-0.002-175s-4.188-10.197-6.499-13
		c-2.128-2.581-39.768-25.506-39.749-25.5C325.513,60.063,316.513,59.149,316.5,61z"/>
	<polygon display="inline" fill="#80BD01" stroke="#80BD01" stroke-miterlimit="10" points="455,151.5 454.5,285.5 437,314 
		422,312.5 410.5,292.5 402.5,281 402,120 410,111 443,128.5 	"/>
</g>
</svg>
